<?xml version="1.0" encoding="utf-8"?>
<!-- Generator: Adobe Illustrator 15.1.0, SVG Export Plug-In . SVG Version: 6.00 Build 0)  -->
<!DOCTYPE svg PUBLIC "-//W3C//DTD SVG 1.1//EN" "http://www.w3.org/Graphics/SVG/1.1/DTD/svg11.dtd">
<svg version="1.1" id="Layer_1" xmlns="http://www.w3.org/2000/svg" xmlns:xlink="http://www.w3.org/1999/xlink" x="0px" y="0px"
	 width="239px" height="207px" viewBox="88.5 67.5 239 207" enable-background="new 88.5 67.5 239 207" xml:space="preserve">
<title>Artboard 81 copy 2</title>
<path fill="#ED713A" d="M103.379,85.786h207.242l-52.488,85.687L207,129.625l-51.133,41.847L103.379,85.786z"/>
<path d="M179.102,213.359l27.898,43.8l27.897-43.8H207H179.102z"/>
<path fill="#FFFFFF" d="M207,213.319h27.897l23.235-41.847L207,129.625l-51.133,41.847l23.234,41.847H207"/>
<g>
	<title>Layer 1</title>
	<path id="path2830" stroke="#000000" stroke-width="5" d="M263.562,130.756c-15.389,0.1-30.218,4.762-45.322,6.627
		c-6.303,0.778-12.8,0.969-19.115,0.245c-8.396-0.962-16.524-3.518-24.915-4.664c-7.498-1.023-15.09-2.092-22.635-2.135
		c-13.186-0.076-25.938,3.926-38.865,6.087c0,3.665-0.769,8.37,1.165,10.946c1.994,2.657,5.356,5.087,6.229,8.688
		c2.068,8.54,5.005,16.911,8.76,24.936c1.825,3.899,5.269,6.619,9.115,8.493c9.262,4.51,20.224,5.173,30.383,3.754
		c14.469-2.021,22.319-12.543,28.308-24.568c2.242-4.888,2.492-10.528,5.443-14.996c1.753-2.653,5.825-1.537,8.734-1.547
		c2.91-0.009,5.378,4.682,6.279,7.806c3.196,11.052,8.525,22.776,19.115,28.567c15.816,8.647,40.733,7.03,50.995-8.565
		c4.016-6.104,5.124-13.509,7.14-20.419c1.227-4.207,2.322-9.222,6.685-11.535c1.76-0.934,0.524-4.658,0.784-6.823
		c0.283-2.359,0.829-4.445-2.633-4.909c-6.039-0.809-11.897-3.266-18.078-4.098C275.277,131.858,269.539,130.718,263.562,130.756z
		 M161.83,134.683c4.368-0.026,8.717,0.283,12.963,1.154c25.297,5.187,25.809,15.29,15.395,36.177
		c-8.486,17.019-26.064,21.284-43.777,17.204c-8.166-1.881-13.749-7.405-16.382-14.972c-2.779-7.984-4.881-16.469-4.406-24.862
		c0.638-11.238,13.752-12.818,23.142-13.842C153.074,135.073,157.462,134.71,161.83,134.683z M254.193,134.683
		c4.369,0.027,8.757,0.39,13.066,0.859c9.39,1.024,22.504,2.604,23.141,13.842c0.476,8.394-1.627,16.878-4.405,24.862
		c-2.634,7.566-8.216,13.091-16.381,14.972c-17.712,4.079-35.292-0.186-43.777-17.204c-10.414-20.887-9.902-30.991,15.395-36.177
		C245.477,134.967,249.826,134.657,254.193,134.683z"/>
</g>
</svg>
